<?xml version="1.0" encoding="utf-8"?>
<!-- Generator: Adobe Illustrator 26.0.0, SVG Export Plug-In . SVG Version: 6.00 Build 0)  -->
<svg version="1.1" xmlns="http://www.w3.org/2000/svg" xmlns:xlink="http://www.w3.org/1999/xlink" x="0px" y="0px"
	 viewBox="0 0 140 60" style="enable-background:new 0 0 140 60;" xml:space="preserve">
<style type="text/css">
	.st0{fill:#FFFFFF;stroke:#E30613;stroke-width:7;stroke-miterlimit:10;}
	.st1{fill:none;}
	.st2{fill:#FFFFFF;stroke:#FFFFFF;stroke-width:7;stroke-miterlimit:10;}
	.st3{fill:#FFFFFF;}
	.st4{fill:#FFFFFF;stroke:#FFED00;stroke-width:7;stroke-miterlimit:10;}
	.st5{fill:#FFFFFF;stroke:#312783;stroke-width:7;stroke-miterlimit:10;}
	.st6{stroke:#E6332A;stroke-width:10;stroke-miterlimit:10;}
	.st7{stroke:#FFFFFF;stroke-width:10;stroke-miterlimit:10;}
	.st8{fill:#1D1D1B;stroke:#FFED00;stroke-width:10;stroke-miterlimit:10;}
	.st9{stroke:#FFFFFF;stroke-width:15;stroke-miterlimit:10;}
	.st10{fill:url(#SVGID_1_);}
	.st11{fill:url(#SVGID_00000145024206922418736600000016976181873473515943_);}
	.st12{fill:#224081;}
	.st13{fill:url(#SVGID_00000126324162734876801310000012875066846716693405_);}
	.st14{fill:url(#SVGID_00000144329846198245418700000007673791236436911514_);}
	.st15{fill:url(#SVGID_00000020367280197927435930000011169675154514672281_);}
	.st16{fill:url(#SVGID_00000129896326504760821550000004081985687000890265_);}
	.st17{fill:#EE2439;}
	.st18{fill:#ED2227;}
	.st19{fill:url(#SVGID_00000080924344548485536820000005276618174660956565_);}
	.st20{fill:url(#SVGID_00000125572618049641061110000012237269112204161198_);}
	.st21{fill:#F26D24;}
	.st22{fill:url(#SVGID_00000001633843721562466370000011777230812850685109_);}
	.st23{fill:url(#SVGID_00000168113447506644628240000008545341741501514931_);}
	.st24{fill:url(#SVGID_00000127021026988268434150000005720891024838720668_);}
	.st25{fill:#F8B718;}
	.st26{fill:url(#SVGID_00000168814581711150064290000013821691190581358242_);}
	.st27{fill:url(#SVGID_00000023975283250384220800000002958614509004841905_);}
	.st28{fill:url(#SVGID_00000167362960771628502220000017345242959638247598_);}
	.st29{fill:#3DB14A;}
	.st30{fill:url(#SVGID_00000108291304557263866520000006910566789586179768_);}
	.st31{fill:url(#SVGID_00000183238072060530738160000007754616999971160755_);}
	.st32{fill:url(#SVGID_00000182521675439470550670000002895909124746789768_);}
	.st33{fill:#05A6E0;}
	.st34{fill:url(#SVGID_00000120543857497393808960000007501547851562541702_);}
	.st35{fill:url(#SVGID_00000046310798431510259640000008996460871763758210_);}
	.st36{fill:url(#SVGID_00000057138474138070514510000011490635948959136698_);}
	.st37{fill:#9D2A90;}
	.st38{fill:url(#SVGID_00000036209618410160152790000000612268435916712894_);}
	.st39{fill:#A54F9E;}
	.st40{fill:#FFFFFF;stroke:#312783;stroke-width:16;stroke-miterlimit:10;}
	.st41{fill:#FFFFFF;stroke:#FFED00;stroke-width:16;stroke-miterlimit:10;}
	.st42{fill:#FFFFFF;stroke:#E30613;stroke-width:16;stroke-miterlimit:10;}
</style>
<g id="EXIT">
</g>
<g id="MENU">
	<path class="st4" d="M119.26,49.5H20.74C12.04,49.5,5,42.46,5,33.76v-7.53c0-8.69,7.04-15.74,15.74-15.74h98.53
		c8.69,0,15.74,7.04,15.74,15.74v7.53C135,42.46,127.96,49.5,119.26,49.5z"/>
	<g>
		<rect x="46.94" y="20.13" class="st1" width="44.96" height="19.73"/>
		<path d="M57.16,34.78h-2.88v-4.35h-1.45v1.43h-1.47v-1.43h-1.41v4.35h-2.96V24.6h2.88v1.39h1.49v1.49h1.39v-1.43h1.49V24.6h2.92
			V34.78z"/>
		<path d="M68.59,34.7h-10.3V24.41h10.3v1.43h-7.34v2.92h4.39v1.51h-4.39v2.94h7.34V34.7z"/>
		<path d="M79.65,34.78h-2.88v-1.39h-1.45v-1.47h-1.47v-1.49h-1.41v4.35h-2.96V24.6h2.88v1.39h1.49v1.45h1.47v1.49h1.41V24.6h2.92
			V34.78z"/>
		<path d="M90.89,33.31H89.5v1.47h-7.32v-1.39h-1.47V24.6h2.88v8.71h4.37V24.6h2.92V33.31z"/>
	</g>
</g>
<g id="PLAY">
</g>
<g id="Pagina_de_puntajes">
</g>
<g id="Pagina_de_juego">
</g>
<g id="Pagina_principal">
	<g id="Botones">
	</g>
</g>
</svg>
