<?xml version="1.0" encoding="utf-8"?>
<!-- Generator: Adobe Illustrator 26.0.0, SVG Export Plug-In . SVG Version: 6.00 Build 0)  -->
<svg version="1.1" xmlns="http://www.w3.org/2000/svg" xmlns:xlink="http://www.w3.org/1999/xlink" x="0px" y="0px"
	 viewBox="0 0 140 60" style="enable-background:new 0 0 140 60;" xml:space="preserve">
<style type="text/css">
	.st0{fill:#FFFFFF;stroke:#E30613;stroke-width:7;stroke-miterlimit:10;}
	.st1{fill:none;}
	.st2{fill:#FFFFFF;stroke:#FFFFFF;stroke-width:7;stroke-miterlimit:10;}
	.st3{fill:#FFFFFF;}
	.st4{fill:#FFFFFF;stroke:#FFED00;stroke-width:7;stroke-miterlimit:10;}
	.st5{fill:#FFFFFF;stroke:#312783;stroke-width:7;stroke-miterlimit:10;}
	.st6{stroke:#E6332A;stroke-width:10;stroke-miterlimit:10;}
	.st7{stroke:#FFFFFF;stroke-width:10;stroke-miterlimit:10;}
	.st8{fill:#1D1D1B;stroke:#FFED00;stroke-width:10;stroke-miterlimit:10;}
	.st9{stroke:#FFFFFF;stroke-width:15;stroke-miterlimit:10;}
	.st10{fill:url(#SVGID_1_);}
	.st11{fill:url(#SVGID_00000053514643034386830350000008765157348354839704_);}
	.st12{fill:#224081;}
	.st13{fill:url(#SVGID_00000096020601616963661720000002820107719824289460_);}
	.st14{fill:url(#SVGID_00000071518830633343094930000001339582748895495855_);}
	.st15{fill:url(#SVGID_00000005963831356425522690000003985015338620118694_);}
	.st16{fill:url(#SVGID_00000168107933854554233200000005876582871265884568_);}
	.st17{fill:#EE2439;}
	.st18{fill:#ED2227;}
	.st19{fill:url(#SVGID_00000102540932274557969150000009585331603562733222_);}
	.st20{fill:url(#SVGID_00000030489317830696579380000014126963848652078484_);}
	.st21{fill:#F26D24;}
	.st22{fill:url(#SVGID_00000167366550751159464310000017204956212788322212_);}
	.st23{fill:url(#SVGID_00000176022069413580718910000011146745530754750624_);}
	.st24{fill:url(#SVGID_00000147899952577536690350000004485455635131012996_);}
	.st25{fill:#F8B718;}
	.st26{fill:url(#SVGID_00000011728019555075859110000003974652199147484348_);}
	.st27{fill:url(#SVGID_00000052786403345754997010000010063857042242453380_);}
	.st28{fill:url(#SVGID_00000064355684715920562660000015954940312069687427_);}
	.st29{fill:#3DB14A;}
	.st30{fill:url(#SVGID_00000115473640383174441290000006260532883756516751_);}
	.st31{fill:url(#SVGID_00000183225979793733995250000005933051656213362818_);}
	.st32{fill:url(#SVGID_00000159459561675589830930000003301734948260692887_);}
	.st33{fill:#05A6E0;}
	.st34{fill:url(#SVGID_00000106118486781761647610000006989776755992410042_);}
	.st35{fill:url(#SVGID_00000038390180900438802280000004254162263244004013_);}
	.st36{fill:url(#SVGID_00000175280936948942310120000005774439220667376013_);}
	.st37{fill:#9D2A90;}
	.st38{fill:url(#SVGID_00000031889005969503193190000017251138046097101990_);}
	.st39{fill:#A54F9E;}
	.st40{fill:#FFFFFF;stroke:#312783;stroke-width:16;stroke-miterlimit:10;}
	.st41{fill:#FFFFFF;stroke:#FFED00;stroke-width:16;stroke-miterlimit:10;}
	.st42{fill:#FFFFFF;stroke:#E30613;stroke-width:16;stroke-miterlimit:10;}
</style>
<g id="EXIT">
</g>
<g id="MENU">
</g>
<g id="PLAY">
	<path class="st5" d="M119.26,49.5H20.74C12.04,49.5,5,42.46,5,33.76v-7.53c0-8.69,7.04-15.74,15.74-15.74h98.53
		c8.69,0,15.74,7.04,15.74,15.74v7.53C135,42.46,127.96,49.5,119.26,49.5z"/>
	<g>
		<rect x="47.52" y="20.13" class="st1" width="44.96" height="19.73"/>
		<path d="M57.74,30.38h-1.39v1.47h-5.87v2.92h-2.92V24.6h8.73v1.39h1.45V30.38z M54.81,30.38v-4.31h-4.33v4.31H54.81z"/>
		<path d="M66.79,34.78h-8.73V24.6h2.88v8.71h5.85V34.78z"/>
		<path d="M80.22,34.78H77.3v-2.9h-4.33v2.9h-2.92v-7.26h1.39v-1.45h1.49V24.6h4.37v1.39h1.47v1.45h1.45V34.78z M77.3,30.4v-2.96
			h-1.45v-1.37h-1.49v1.45h-1.39v2.88H77.3z"/>
		<path d="M90.72,28.93h-1.39v1.45h-1.49v4.39h-2.96v-4.31h-1.41v-1.47H82V24.6h2.88v4.33h2.92V24.6h2.92V28.93z"/>
	</g>
</g>
<g id="Pagina_de_puntajes">
</g>
<g id="Pagina_de_juego">
</g>
<g id="Pagina_principal">
	<g id="Botones">
	</g>
</g>
</svg>
